<svg width="500" height="500" viewBox="0 0 500 500" fill="none" xmlns="http://www.w3.org/2000/svg">
<rect x="106" y="89" width="305" height="305" rx="25" fill="#FFD5E8"/>
<circle cx="255" cy="206" r="97" fill="#1F1E1E"/>
<path d="M145.04 323.28C145.211 323.963 145.296 324.816 145.296 325.84C145.296 326.821 145.211 327.675 145.04 328.4C145.211 329.083 145.296 329.936 145.296 330.96C145.296 331.941 145.211 332.795 145.04 333.52C145.211 334.203 145.296 335.056 145.296 336.08C145.296 337.061 145.211 337.915 145.04 338.64H143.12C143.291 339.323 143.376 340.176 143.376 341.2C143.376 342.181 143.291 343.035 143.12 343.76C143.291 344.443 143.376 345.296 143.376 346.32C143.376 347.301 143.291 348.155 143.12 348.88H141.84C142.011 349.563 142.096 350.416 142.096 351.44C142.096 352.421 142.011 353.275 141.84 354H138C137.829 353.275 137.744 352.421 137.744 351.44C137.744 350.416 137.829 349.563 138 348.88H136.72C136.549 348.155 136.464 347.301 136.464 346.32C136.464 345.296 136.549 344.443 136.72 343.76H132.88C133.051 344.443 133.136 345.296 133.136 346.32C133.136 347.301 133.051 348.155 132.88 348.88H131.6C131.771 349.563 131.856 350.416 131.856 351.44C131.856 352.421 131.771 353.275 131.6 354H127.76C127.589 353.275 127.504 352.421 127.504 351.44C127.504 350.416 127.589 349.563 127.76 348.88H126.48C126.309 348.155 126.224 347.301 126.224 346.32C126.224 345.296 126.309 344.443 126.48 343.76C126.309 343.035 126.224 342.181 126.224 341.2C126.224 340.176 126.309 339.323 126.48 338.64H124.56C124.389 337.915 124.304 337.061 124.304 336.08C124.304 335.056 124.389 334.203 124.56 333.52C124.389 332.795 124.304 331.941 124.304 330.96C124.304 329.936 124.389 329.083 124.56 328.4C124.389 327.675 124.304 326.821 124.304 325.84C124.304 324.816 124.389 323.963 124.56 323.28C124.389 322.555 124.304 321.701 124.304 320.72C124.304 319.696 124.389 318.843 124.56 318.16H129.68C129.851 318.843 129.936 319.696 129.936 320.72C129.936 321.701 129.851 322.555 129.68 323.28C129.851 323.963 129.936 324.816 129.936 325.84C129.936 326.821 129.851 327.675 129.68 328.4C129.851 329.083 129.936 329.936 129.936 330.96C129.936 331.941 129.851 332.795 129.68 333.52C129.851 334.203 129.936 335.056 129.936 336.08C129.936 337.061 129.851 337.915 129.68 338.64C129.851 339.323 129.936 340.176 129.936 341.2C129.936 342.181 129.851 343.035 129.68 343.76H131.6C131.429 343.035 131.344 342.181 131.344 341.2C131.344 340.176 131.429 339.323 131.6 338.64H132.88C132.709 337.915 132.624 337.061 132.624 336.08C132.624 335.056 132.709 334.203 132.88 333.52C132.709 332.795 132.624 331.941 132.624 330.96C132.624 329.936 132.709 329.083 132.88 328.4C132.709 327.675 132.624 326.821 132.624 325.84C132.624 324.816 132.709 323.963 132.88 323.28C132.709 322.555 132.624 321.701 132.624 320.72C132.624 319.696 132.709 318.843 132.88 318.16H136.72C136.891 318.843 136.976 319.696 136.976 320.72C136.976 321.701 136.891 322.555 136.72 323.28C136.891 323.963 136.976 324.816 136.976 325.84C136.976 326.821 136.891 327.675 136.72 328.4C136.891 329.083 136.976 329.936 136.976 330.96C136.976 331.941 136.891 332.795 136.72 333.52C136.891 334.203 136.976 335.056 136.976 336.08C136.976 337.061 136.891 337.915 136.72 338.64H138C138.171 339.323 138.256 340.176 138.256 341.2C138.256 342.181 138.171 343.035 138 343.76H139.92C139.749 343.035 139.664 342.181 139.664 341.2C139.664 340.176 139.749 339.323 139.92 338.64C139.749 337.915 139.664 337.061 139.664 336.08C139.664 335.056 139.749 334.203 139.92 333.52C139.749 332.795 139.664 331.941 139.664 330.96C139.664 329.936 139.749 329.083 139.92 328.4C139.749 327.675 139.664 326.821 139.664 325.84C139.664 324.816 139.749 323.963 139.92 323.28C139.749 322.555 139.664 321.701 139.664 320.72C139.664 319.696 139.749 318.843 139.92 318.16H145.04C145.211 318.843 145.296 319.696 145.296 320.72C145.296 321.701 145.211 322.555 145.04 323.28ZM175.785 323.28C175.956 323.963 176.041 324.816 176.041 325.84C176.041 326.821 175.956 327.675 175.785 328.4C175.956 329.083 176.041 329.936 176.041 330.96C176.041 331.941 175.956 332.795 175.785 333.52C175.956 334.203 176.041 335.056 176.041 336.08C176.041 337.061 175.956 337.915 175.785 338.64C175.956 339.323 176.041 340.176 176.041 341.2C176.041 342.181 175.956 343.035 175.785 343.76C175.956 344.443 176.041 345.296 176.041 346.32C176.041 347.301 175.956 348.155 175.785 348.88C175.956 349.563 176.041 350.416 176.041 351.44C176.041 352.421 175.956 353.275 175.785 354H170.665C170.494 353.275 170.409 352.421 170.409 351.44C170.409 350.416 170.494 349.563 170.665 348.88C170.494 348.155 170.409 347.301 170.409 346.32C170.409 345.296 170.494 344.443 170.665 343.76C170.494 343.035 170.409 342.181 170.409 341.2C170.409 340.176 170.494 339.323 170.665 338.64H160.425C160.596 339.323 160.681 340.176 160.681 341.2C160.681 342.181 160.596 343.035 160.425 343.76C160.596 344.443 160.681 345.296 160.681 346.32C160.681 347.301 160.596 348.155 160.425 348.88C160.596 349.563 160.681 350.416 160.681 351.44C160.681 352.421 160.596 353.275 160.425 354H155.305C155.134 353.275 155.049 352.421 155.049 351.44C155.049 350.416 155.134 349.563 155.305 348.88C155.134 348.155 155.049 347.301 155.049 346.32C155.049 345.296 155.134 344.443 155.305 343.76C155.134 343.035 155.049 342.181 155.049 341.2C155.049 340.176 155.134 339.323 155.305 338.64C155.134 337.915 155.049 337.061 155.049 336.08C155.049 335.056 155.134 334.203 155.305 333.52C155.134 332.795 155.049 331.941 155.049 330.96C155.049 329.936 155.134 329.083 155.305 328.4C155.134 327.675 155.049 326.821 155.049 325.84C155.049 324.816 155.134 323.963 155.305 323.28C155.134 322.555 155.049 321.701 155.049 320.72C155.049 319.696 155.134 318.843 155.305 318.16H160.425C160.596 318.843 160.681 319.696 160.681 320.72C160.681 321.701 160.596 322.555 160.425 323.28C160.596 323.963 160.681 324.816 160.681 325.84C160.681 326.821 160.596 327.675 160.425 328.4C160.596 329.083 160.681 329.936 160.681 330.96C160.681 331.941 160.596 332.795 160.425 333.52H170.665C170.494 332.795 170.409 331.941 170.409 330.96C170.409 329.936 170.494 329.083 170.665 328.4C170.494 327.675 170.409 326.821 170.409 325.84C170.409 324.816 170.494 323.963 170.665 323.28C170.494 322.555 170.409 321.701 170.409 320.72C170.409 319.696 170.494 318.843 170.665 318.16H175.785C175.956 318.843 176.041 319.696 176.041 320.72C176.041 321.701 175.956 322.555 175.785 323.28ZM206.786 346.32C206.786 347.301 206.701 348.155 206.53 348.88C206.701 349.563 206.786 350.416 206.786 351.44C206.786 352.421 206.701 353.275 206.53 354H201.41C201.239 353.275 201.154 352.421 201.154 351.44C201.154 350.416 201.239 349.563 201.41 348.88C201.239 348.155 201.154 347.301 201.154 346.32C201.154 345.296 201.239 344.443 201.41 343.76H191.17C191.341 344.443 191.426 345.296 191.426 346.32C191.426 347.301 191.341 348.155 191.17 348.88C191.341 349.563 191.426 350.416 191.426 351.44C191.426 352.421 191.341 353.275 191.17 354H186.05C185.879 353.275 185.794 352.421 185.794 351.44C185.794 350.416 185.879 349.563 186.05 348.88C185.879 348.155 185.794 347.301 185.794 346.32C185.794 345.296 185.879 344.443 186.05 343.76H187.97C187.799 343.035 187.714 342.181 187.714 341.2C187.714 340.176 187.799 339.323 187.97 338.64C187.799 337.915 187.714 337.061 187.714 336.08C187.714 335.056 187.799 334.203 187.97 333.52H189.25C189.079 332.795 188.994 331.941 188.994 330.96C188.994 329.936 189.079 329.083 189.25 328.4H191.17C190.999 327.675 190.914 326.821 190.914 325.84C190.914 324.816 190.999 323.963 191.17 323.28H192.45C192.279 322.555 192.194 321.701 192.194 320.72C192.194 319.696 192.279 318.843 192.45 318.16H200.13C200.301 318.843 200.386 319.696 200.386 320.72C200.386 321.701 200.301 322.555 200.13 323.28H201.41C201.581 323.963 201.666 324.816 201.666 325.84C201.666 326.821 201.581 327.675 201.41 328.4H203.33C203.501 329.083 203.586 329.936 203.586 330.96C203.586 331.941 203.501 332.795 203.33 333.52H204.61C204.781 334.203 204.866 335.056 204.866 336.08C204.866 337.061 204.781 337.915 204.61 338.64C204.781 339.323 204.866 340.176 204.866 341.2C204.866 342.181 204.781 343.035 204.61 343.76H206.53C206.701 344.443 206.786 345.296 206.786 346.32ZM199.49 338.64C199.319 337.915 199.234 337.061 199.234 336.08C199.234 335.056 199.319 334.203 199.49 333.52H198.21C198.039 332.795 197.954 331.941 197.954 330.96C197.954 329.936 198.039 329.083 198.21 328.4H194.37C194.541 329.083 194.626 329.936 194.626 330.96C194.626 331.941 194.541 332.795 194.37 333.52H193.09C193.261 334.203 193.346 335.056 193.346 336.08C193.346 337.061 193.261 337.915 193.09 338.64H199.49ZM237.531 320.72C237.531 321.701 237.446 322.555 237.275 323.28H229.595C229.766 323.963 229.851 324.816 229.851 325.84C229.851 326.821 229.766 327.675 229.595 328.4C229.766 329.083 229.851 329.936 229.851 330.96C229.851 331.941 229.766 332.795 229.595 333.52C229.766 334.203 229.851 335.056 229.851 336.08C229.851 337.061 229.766 337.915 229.595 338.64C229.766 339.323 229.851 340.176 229.851 341.2C229.851 342.181 229.766 343.035 229.595 343.76C229.766 344.443 229.851 345.296 229.851 346.32C229.851 347.301 229.766 348.155 229.595 348.88C229.766 349.563 229.851 350.416 229.851 351.44C229.851 352.421 229.766 353.275 229.595 354H224.475C224.304 353.275 224.219 352.421 224.219 351.44C224.219 350.416 224.304 349.563 224.475 348.88C224.304 348.155 224.219 347.301 224.219 346.32C224.219 345.296 224.304 344.443 224.475 343.76C224.304 343.035 224.219 342.181 224.219 341.2C224.219 340.176 224.304 339.323 224.475 338.64C224.304 337.915 224.219 337.061 224.219 336.08C224.219 335.056 224.304 334.203 224.475 333.52C224.304 332.795 224.219 331.941 224.219 330.96C224.219 329.936 224.304 329.083 224.475 328.4C224.304 327.675 224.219 326.821 224.219 325.84C224.219 324.816 224.304 323.963 224.475 323.28H216.795C216.624 322.555 216.539 321.701 216.539 320.72C216.539 319.696 216.624 318.843 216.795 318.16H237.275C237.446 318.843 237.531 319.696 237.531 320.72ZM268.02 338.64C268.191 339.323 268.276 340.176 268.276 341.2C268.276 342.181 268.191 343.035 268.02 343.76C268.191 344.443 268.276 345.296 268.276 346.32C268.276 347.301 268.191 348.155 268.02 348.88H265.46C265.631 349.563 265.716 350.416 265.716 351.44C265.716 352.421 265.631 353.275 265.46 354H250.1C249.929 353.275 249.844 352.421 249.844 351.44C249.844 350.416 249.929 349.563 250.1 348.88H247.54C247.369 348.155 247.284 347.301 247.284 346.32C247.284 345.296 247.369 344.443 247.54 343.76H252.66C252.831 344.443 252.916 345.296 252.916 346.32C252.916 347.301 252.831 348.155 252.66 348.88H262.9C262.729 348.155 262.644 347.301 262.644 346.32C262.644 345.296 262.729 344.443 262.9 343.76C262.729 343.035 262.644 342.181 262.644 341.2C262.644 340.176 262.729 339.323 262.9 338.64H250.1C249.929 337.915 249.844 337.061 249.844 336.08C249.844 335.056 249.929 334.203 250.1 333.52H247.54C247.369 332.795 247.284 331.941 247.284 330.96C247.284 329.936 247.369 329.083 247.54 328.4C247.369 327.675 247.284 326.821 247.284 325.84C247.284 324.816 247.369 323.963 247.54 323.28H250.1C249.929 322.555 249.844 321.701 249.844 320.72C249.844 319.696 249.929 318.843 250.1 318.16H265.46C265.631 318.843 265.716 319.696 265.716 320.72C265.716 321.701 265.631 322.555 265.46 323.28H268.02C268.191 323.963 268.276 324.816 268.276 325.84C268.276 326.821 268.191 327.675 268.02 328.4H262.9C262.729 327.675 262.644 326.821 262.644 325.84C262.644 324.816 262.729 323.963 262.9 323.28H252.66C252.831 323.963 252.916 324.816 252.916 325.84C252.916 326.821 252.831 327.675 252.66 328.4C252.831 329.083 252.916 329.936 252.916 330.96C252.916 331.941 252.831 332.795 252.66 333.52H265.46C265.631 334.203 265.716 335.056 265.716 336.08C265.716 337.061 265.631 337.915 265.46 338.64H268.02ZM298.765 333.52C298.936 334.203 299.021 335.056 299.021 336.08C299.021 337.061 298.936 337.915 298.765 338.64C298.936 339.323 299.021 340.176 299.021 341.2C299.021 342.181 298.936 343.035 298.765 343.76H296.845C297.016 344.443 297.101 345.296 297.101 346.32C297.101 347.301 297.016 348.155 296.845 348.88H293.645C293.816 349.563 293.901 350.416 293.901 351.44C293.901 352.421 293.816 353.275 293.645 354H283.405C283.234 353.275 283.149 352.421 283.149 351.44C283.149 350.416 283.234 349.563 283.405 348.88H280.205C280.034 348.155 279.949 347.301 279.949 346.32C279.949 345.296 280.034 344.443 280.205 343.76H278.285C278.114 343.035 278.029 342.181 278.029 341.2C278.029 340.176 278.114 339.323 278.285 338.64C278.114 337.915 278.029 337.061 278.029 336.08C278.029 335.056 278.114 334.203 278.285 333.52C278.114 332.795 278.029 331.941 278.029 330.96C278.029 329.936 278.114 329.083 278.285 328.4H280.205C280.034 327.675 279.949 326.821 279.949 325.84C279.949 324.816 280.034 323.963 280.205 323.28H283.405C283.234 322.555 283.149 321.701 283.149 320.72C283.149 319.696 283.234 318.843 283.405 318.16H293.645C293.816 318.843 293.901 319.696 293.901 320.72C293.901 321.701 293.816 322.555 293.645 323.28H296.845C297.016 323.963 297.101 324.816 297.101 325.84C297.101 326.821 297.016 327.675 296.845 328.4H298.765C298.936 329.083 299.021 329.936 299.021 330.96C299.021 331.941 298.936 332.795 298.765 333.52ZM293.645 343.76C293.474 343.035 293.389 342.181 293.389 341.2C293.389 340.176 293.474 339.323 293.645 338.64C293.474 337.915 293.389 337.061 293.389 336.08C293.389 335.056 293.474 334.203 293.645 333.52C293.474 332.795 293.389 331.941 293.389 330.96C293.389 329.936 293.474 329.083 293.645 328.4H291.725C291.554 327.675 291.469 326.821 291.469 325.84C291.469 324.816 291.554 323.963 291.725 323.28H285.325C285.496 323.963 285.581 324.816 285.581 325.84C285.581 326.821 285.496 327.675 285.325 328.4H283.405C283.576 329.083 283.661 329.936 283.661 330.96C283.661 331.941 283.576 332.795 283.405 333.52C283.576 334.203 283.661 335.056 283.661 336.08C283.661 337.061 283.576 337.915 283.405 338.64C283.576 339.323 283.661 340.176 283.661 341.2C283.661 342.181 283.576 343.035 283.405 343.76H285.325C285.496 344.443 285.581 345.296 285.581 346.32C285.581 347.301 285.496 348.155 285.325 348.88H291.725C291.554 348.155 291.469 347.301 291.469 346.32C291.469 345.296 291.554 344.443 291.725 343.76H293.645ZM329.51 323.28C329.681 323.963 329.766 324.816 329.766 325.84C329.766 326.821 329.681 327.675 329.51 328.4C329.681 329.083 329.766 329.936 329.766 330.96C329.766 331.941 329.681 332.795 329.51 333.52C329.681 334.203 329.766 335.056 329.766 336.08C329.766 337.061 329.681 337.915 329.51 338.64C329.681 339.323 329.766 340.176 329.766 341.2C329.766 342.181 329.681 343.035 329.51 343.76C329.681 344.443 329.766 345.296 329.766 346.32C329.766 347.301 329.681 348.155 329.51 348.88H326.95C327.121 349.563 327.206 350.416 327.206 351.44C327.206 352.421 327.121 353.275 326.95 354H311.59C311.419 353.275 311.334 352.421 311.334 351.44C311.334 350.416 311.419 349.563 311.59 348.88H309.03C308.859 348.155 308.774 347.301 308.774 346.32C308.774 345.296 308.859 344.443 309.03 343.76C308.859 343.035 308.774 342.181 308.774 341.2C308.774 340.176 308.859 339.323 309.03 338.64C308.859 337.915 308.774 337.061 308.774 336.08C308.774 335.056 308.859 334.203 309.03 333.52C308.859 332.795 308.774 331.941 308.774 330.96C308.774 329.936 308.859 329.083 309.03 328.4C308.859 327.675 308.774 326.821 308.774 325.84C308.774 324.816 308.859 323.963 309.03 323.28C308.859 322.555 308.774 321.701 308.774 320.72C308.774 319.696 308.859 318.843 309.03 318.16H314.15C314.321 318.843 314.406 319.696 314.406 320.72C314.406 321.701 314.321 322.555 314.15 323.28C314.321 323.963 314.406 324.816 314.406 325.84C314.406 326.821 314.321 327.675 314.15 328.4C314.321 329.083 314.406 329.936 314.406 330.96C314.406 331.941 314.321 332.795 314.15 333.52C314.321 334.203 314.406 335.056 314.406 336.08C314.406 337.061 314.321 337.915 314.15 338.64C314.321 339.323 314.406 340.176 314.406 341.2C314.406 342.181 314.321 343.035 314.15 343.76C314.321 344.443 314.406 345.296 314.406 346.32C314.406 347.301 314.321 348.155 314.15 348.88H324.39C324.219 348.155 324.134 347.301 324.134 346.32C324.134 345.296 324.219 344.443 324.39 343.76C324.219 343.035 324.134 342.181 324.134 341.2C324.134 340.176 324.219 339.323 324.39 338.64C324.219 337.915 324.134 337.061 324.134 336.08C324.134 335.056 324.219 334.203 324.39 333.52C324.219 332.795 324.134 331.941 324.134 330.96C324.134 329.936 324.219 329.083 324.39 328.4C324.219 327.675 324.134 326.821 324.134 325.84C324.134 324.816 324.219 323.963 324.39 323.28C324.219 322.555 324.134 321.701 324.134 320.72C324.134 319.696 324.219 318.843 324.39 318.16H329.51C329.681 318.843 329.766 319.696 329.766 320.72C329.766 321.701 329.681 322.555 329.51 323.28ZM360.255 323.28C360.426 323.963 360.511 324.816 360.511 325.84C360.511 326.821 360.426 327.675 360.255 328.4C360.426 329.083 360.511 329.936 360.511 330.96C360.511 331.941 360.426 332.795 360.255 333.52C360.426 334.203 360.511 335.056 360.511 336.08C360.511 337.061 360.426 337.915 360.255 338.64C360.426 339.323 360.511 340.176 360.511 341.2C360.511 342.181 360.426 343.035 360.255 343.76C360.426 344.443 360.511 345.296 360.511 346.32C360.511 347.301 360.426 348.155 360.255 348.88C360.426 349.563 360.511 350.416 360.511 351.44C360.511 352.421 360.426 353.275 360.255 354H355.135C354.964 353.275 354.879 352.421 354.879 351.44C354.879 350.416 354.964 349.563 355.135 348.88H351.935C351.764 348.155 351.679 347.301 351.679 346.32C351.679 345.296 351.764 344.443 351.935 343.76H350.015C349.844 343.035 349.759 342.181 349.759 341.2C349.759 340.176 349.844 339.323 350.015 338.64H347.455C347.284 337.915 347.199 337.061 347.199 336.08C347.199 335.056 347.284 334.203 347.455 333.52H344.895C345.066 334.203 345.151 335.056 345.151 336.08C345.151 337.061 345.066 337.915 344.895 338.64C345.066 339.323 345.151 340.176 345.151 341.2C345.151 342.181 345.066 343.035 344.895 343.76C345.066 344.443 345.151 345.296 345.151 346.32C345.151 347.301 345.066 348.155 344.895 348.88C345.066 349.563 345.151 350.416 345.151 351.44C345.151 352.421 345.066 353.275 344.895 354H339.775C339.604 353.275 339.519 352.421 339.519 351.44C339.519 350.416 339.604 349.563 339.775 348.88C339.604 348.155 339.519 347.301 339.519 346.32C339.519 345.296 339.604 344.443 339.775 343.76C339.604 343.035 339.519 342.181 339.519 341.2C339.519 340.176 339.604 339.323 339.775 338.64C339.604 337.915 339.519 337.061 339.519 336.08C339.519 335.056 339.604 334.203 339.775 333.52C339.604 332.795 339.519 331.941 339.519 330.96C339.519 329.936 339.604 329.083 339.775 328.4C339.604 327.675 339.519 326.821 339.519 325.84C339.519 324.816 339.604 323.963 339.775 323.28C339.604 322.555 339.519 321.701 339.519 320.72C339.519 319.696 339.604 318.843 339.775 318.16H346.175C346.346 318.843 346.431 319.696 346.431 320.72C346.431 321.701 346.346 322.555 346.175 323.28H348.095C348.266 323.963 348.351 324.816 348.351 325.84C348.351 326.821 348.266 327.675 348.095 328.4H350.015C350.186 329.083 350.271 329.936 350.271 330.96C350.271 331.941 350.186 332.795 350.015 333.52H352.575C352.746 334.203 352.831 335.056 352.831 336.08C352.831 337.061 352.746 337.915 352.575 338.64H355.135C354.964 337.915 354.879 337.061 354.879 336.08C354.879 335.056 354.964 334.203 355.135 333.52C354.964 332.795 354.879 331.941 354.879 330.96C354.879 329.936 354.964 329.083 355.135 328.4C354.964 327.675 354.879 326.821 354.879 325.84C354.879 324.816 354.964 323.963 355.135 323.28C354.964 322.555 354.879 321.701 354.879 320.72C354.879 319.696 354.964 318.843 355.135 318.16H360.255C360.426 318.843 360.511 319.696 360.511 320.72C360.511 321.701 360.426 322.555 360.255 323.28ZM391 333.52C391.171 334.203 391.256 335.056 391.256 336.08C391.256 337.061 391.171 337.915 391 338.64C391.171 339.323 391.256 340.176 391.256 341.2C391.256 342.181 391.171 343.035 391 343.76H388.44C388.611 344.443 388.696 345.296 388.696 346.32C388.696 347.301 388.611 348.155 388.44 348.88H385.88C386.051 349.563 386.136 350.416 386.136 351.44C386.136 352.421 386.051 353.275 385.88 354H370.52C370.349 353.275 370.264 352.421 370.264 351.44C370.264 350.416 370.349 349.563 370.52 348.88C370.349 348.155 370.264 347.301 370.264 346.32C370.264 345.296 370.349 344.443 370.52 343.76C370.349 343.035 370.264 342.181 370.264 341.2C370.264 340.176 370.349 339.323 370.52 338.64C370.349 337.915 370.264 337.061 370.264 336.08C370.264 335.056 370.349 334.203 370.52 333.52C370.349 332.795 370.264 331.941 370.264 330.96C370.264 329.936 370.349 329.083 370.52 328.4C370.349 327.675 370.264 326.821 370.264 325.84C370.264 324.816 370.349 323.963 370.52 323.28C370.349 322.555 370.264 321.701 370.264 320.72C370.264 319.696 370.349 318.843 370.52 318.16H385.88C386.051 318.843 386.136 319.696 386.136 320.72C386.136 321.701 386.051 322.555 385.88 323.28H388.44C388.611 323.963 388.696 324.816 388.696 325.84C388.696 326.821 388.611 327.675 388.44 328.4H391C391.171 329.083 391.256 329.936 391.256 330.96C391.256 331.941 391.171 332.795 391 333.52ZM385.88 343.76C385.709 343.035 385.624 342.181 385.624 341.2C385.624 340.176 385.709 339.323 385.88 338.64C385.709 337.915 385.624 337.061 385.624 336.08C385.624 335.056 385.709 334.203 385.88 333.52C385.709 332.795 385.624 331.941 385.624 330.96C385.624 329.936 385.709 329.083 385.88 328.4H383.32C383.149 327.675 383.064 326.821 383.064 325.84C383.064 324.816 383.149 323.963 383.32 323.28H375.64C375.811 323.963 375.896 324.816 375.896 325.84C375.896 326.821 375.811 327.675 375.64 328.4C375.811 329.083 375.896 329.936 375.896 330.96C375.896 331.941 375.811 332.795 375.64 333.52C375.811 334.203 375.896 335.056 375.896 336.08C375.896 337.061 375.811 337.915 375.64 338.64C375.811 339.323 375.896 340.176 375.896 341.2C375.896 342.181 375.811 343.035 375.64 343.76C375.811 344.443 375.896 345.296 375.896 346.32C375.896 347.301 375.811 348.155 375.64 348.88H383.32C383.149 348.155 383.064 347.301 383.064 346.32C383.064 345.296 383.149 344.443 383.32 343.76H385.88Z" fill="#0F1021"/>
<mask id="mask0_3_132" style="mask-type:alpha" maskUnits="userSpaceOnUse" x="97" y="93" width="290" height="245">
<line x1="300.267" y1="93.4229" x2="97.2667" y2="221.423" stroke="black"/>
<line x1="300.267" y1="97.4229" x2="97.2667" y2="225.423" stroke="black"/>
<line x1="303.267" y1="99.4229" x2="100.267" y2="227.423" stroke="black"/>
<line x1="303.267" y1="103.423" x2="100.267" y2="231.423" stroke="black"/>
<line x1="309.267" y1="103.423" x2="106.267" y2="231.423" stroke="black"/>
<line x1="309.267" y1="107.423" x2="106.267" y2="235.423" stroke="black"/>
<line x1="312.267" y1="109.423" x2="109.267" y2="237.423" stroke="black"/>
<line x1="312.267" y1="113.423" x2="109.267" y2="241.423" stroke="black"/>
<line x1="316.267" y1="115.423" x2="113.267" y2="243.423" stroke="black"/>
<line x1="316.267" y1="119.423" x2="113.267" y2="247.423" stroke="black"/>
<line x1="319.267" y1="121.423" x2="116.267" y2="249.423" stroke="black"/>
<line x1="319.267" y1="125.423" x2="116.267" y2="253.423" stroke="black"/>
<line x1="325.267" y1="125.423" x2="122.267" y2="253.423" stroke="black"/>
<line x1="325.267" y1="129.423" x2="122.267" y2="257.423" stroke="black"/>
<line x1="328.267" y1="131.423" x2="125.267" y2="259.423" stroke="black"/>
<line x1="328.267" y1="135.423" x2="125.267" y2="263.423" stroke="black"/>
<line x1="334.267" y1="135.423" x2="131.267" y2="263.423" stroke="black"/>
<line x1="334.267" y1="139.423" x2="131.267" y2="267.423" stroke="black"/>
<line x1="337.267" y1="141.423" x2="134.267" y2="269.423" stroke="black"/>
<line x1="337.267" y1="145.423" x2="134.267" y2="273.423" stroke="black"/>
<line x1="343.267" y1="145.423" x2="140.267" y2="273.423" stroke="black"/>
<line x1="343.267" y1="149.423" x2="140.267" y2="277.423" stroke="black"/>
<line x1="346.267" y1="151.423" x2="143.267" y2="279.423" stroke="black"/>
<line x1="346.267" y1="155.423" x2="143.267" y2="283.423" stroke="black"/>
<line x1="350.267" y1="157.423" x2="147.267" y2="285.423" stroke="black"/>
<line x1="350.267" y1="161.423" x2="147.267" y2="289.423" stroke="black"/>
<line x1="353.267" y1="163.423" x2="150.267" y2="291.423" stroke="black"/>
<line x1="353.267" y1="167.423" x2="150.267" y2="295.423" stroke="black"/>
<line x1="359.267" y1="167.423" x2="156.267" y2="295.423" stroke="black"/>
<line x1="359.267" y1="171.423" x2="156.267" y2="299.423" stroke="black"/>
<line x1="362.267" y1="173.423" x2="159.267" y2="301.423" stroke="black"/>
<line x1="362.267" y1="177.423" x2="159.267" y2="305.423" stroke="black"/>
<line x1="367.267" y1="177.423" x2="164.267" y2="305.423" stroke="black"/>
<line x1="367.267" y1="181.423" x2="164.267" y2="309.423" stroke="black"/>
<line x1="370.267" y1="183.423" x2="167.267" y2="311.423" stroke="black"/>
<line x1="370.267" y1="187.423" x2="167.267" y2="315.423" stroke="black"/>
<line x1="376.267" y1="187.423" x2="173.267" y2="315.423" stroke="black"/>
<line x1="376.267" y1="191.423" x2="173.267" y2="319.423" stroke="black"/>
<line x1="379.267" y1="193.423" x2="176.267" y2="321.423" stroke="black"/>
<line x1="379.267" y1="197.423" x2="176.267" y2="325.423" stroke="black"/>
<line x1="383.267" y1="199.423" x2="180.267" y2="327.423" stroke="black"/>
<line x1="383.267" y1="203.423" x2="180.267" y2="331.423" stroke="black"/>
<line x1="386.267" y1="205.423" x2="183.267" y2="333.423" stroke="black"/>
<line x1="386.267" y1="209.423" x2="183.267" y2="337.423" stroke="black"/>
</mask>
<g mask="url(#mask0_3_132)">
<path d="M214.696 261.536L190.76 185.888L182.696 184.224V177.056H221.224V184.992L210.6 186.528L223.912 234.912L225.192 240.672H226.216L227.88 234.784L243.624 190.752L242.088 186.528L232.744 184.864V177.056H271.272V184.992L260.392 186.656L279.336 235.68L280.744 241.44H281.768L282.92 235.552L295.208 186.528L283.304 184.992V177.056H316.2V184.736L308.008 186.272L286.76 261.536H271.016L251.432 212.512L250.152 207.136H249.256L248.104 212.512L229.928 261.536H214.696Z" fill="#7FAE71" fill-opacity="0.9"/>
</g>
<g filter="url(#filter0_d_3_132)">
<path d="M223.696 249.536L199.76 173.888L191.696 172.224V165.056H230.224V172.992L219.6 174.528L232.912 222.912L234.192 228.672H235.216L236.88 222.784L252.624 178.752L251.088 174.528L241.744 172.864V165.056H280.272V172.992L269.392 174.656L288.336 223.68L289.744 229.44H290.768L291.92 223.552L304.208 174.528L292.304 172.992V165.056H325.2V172.736L317.008 174.272L295.76 249.536H280.016L260.432 200.512L259.152 195.136H258.256L257.104 200.512L238.928 249.536H223.696Z" fill="#7FAE71"/>
</g>
<defs>
<filter id="filter0_d_3_132" x="189.696" y="165.056" width="135.504" height="89.48" filterUnits="userSpaceOnUse" color-interpolation-filters="sRGB">
<feFlood flood-opacity="0" result="BackgroundImageFix"/>
<feColorMatrix in="SourceAlpha" type="matrix" values="0 0 0 0 0 0 0 0 0 0 0 0 0 0 0 0 0 0 127 0" result="hardAlpha"/>
<feOffset dx="-2" dy="5"/>
<feComposite in2="hardAlpha" operator="out"/>
<feColorMatrix type="matrix" values="0 0 0 0 0 0 0 0 0 0 0 0 0 0 0 0 0 0 1 0"/>
<feBlend mode="normal" in2="BackgroundImageFix" result="effect1_dropShadow_3_132"/>
<feBlend mode="normal" in="SourceGraphic" in2="effect1_dropShadow_3_132" result="shape"/>
</filter>
</defs>
</svg>
